<svg width="135" height="32" viewBox="0 0 135 32" fill="none" xmlns="http://www.w3.org/2000/svg">
<g clip-path="url(#clip0_313_188)">
<rect width="32" height="32" rx="7.46667" fill="url(#paint0_linear_313_188)"/>
<path d="M11.1713 22.2572C11.1313 22.605 11.4317 22.8964 11.7782 22.8458L20.4935 21.5727L16.5 17.5L12.1763 13.507L11.1713 22.2572Z" fill="#BAFF2F" fill-opacity="0.5"/>
<path d="M12.1768 13.507L16.2277 17.4165L20.4939 21.5727L41.8681 -0.467601L33.551 -8.53337L12.1768 13.507Z" fill="#BAFF2F"/>
</g>
<path d="M47.207 26.923C45.513 26.923 44.182 26.659 43.214 26.131C42.246 25.603 41.553 24.921 41.135 24.085C40.739 23.249 40.541 22.391 40.541 21.511V15.208H38V11.017H40.541L43.2803 4.91199L46.118 11.017H51.728V15.208H46.118V21.445C46.118 21.995 46.228 22.402 46.448 22.666C46.668 22.93 46.921 23.062 47.207 23.062C47.713 23.062 48.098 22.831 48.362 22.369C48.648 21.907 48.868 21.28 49.022 20.488L53.246 22.963C52.982 23.557 52.597 24.162 52.091 24.778C51.607 25.394 50.958 25.911 50.144 26.329C49.352 26.725 48.373 26.923 47.207 26.923Z" fill="#fff"/>
<path d="M59.8086 27.088C57.8946 27.088 56.4096 26.67 55.3536 25.834C54.2976 24.998 53.7696 23.909 53.7696 22.567C53.7696 21.599 54.0006 20.763 54.4626 20.059C54.9246 19.355 55.7166 18.772 56.8386 18.31C57.9826 17.826 59.5336 17.463 61.4916 17.221C62.2176 17.111 62.8996 16.957 63.5376 16.759C64.1756 16.539 64.4946 16.165 64.4946 15.637C64.4946 15.241 64.3296 14.911 63.9996 14.647C63.6696 14.383 63.1306 14.251 62.3826 14.251C61.5906 14.251 60.9966 14.383 60.6006 14.647C60.2046 14.889 59.9516 15.208 59.8416 15.604C59.7316 16 59.7096 16.396 59.7756 16.792H54.4956C54.4956 16.198 54.6056 15.56 54.8256 14.878C55.0676 14.196 55.4746 13.547 56.0466 12.931C56.6186 12.315 57.3996 11.82 58.3896 11.446C59.4016 11.05 60.6776 10.852 62.2176 10.852C63.9556 10.852 65.3526 11.039 66.4086 11.413C67.4866 11.765 68.3006 12.227 68.8506 12.799C69.4006 13.371 69.7746 13.998 69.9726 14.68C70.1706 15.34 70.2696 15.967 70.2696 16.561V26.692H64.8576V24.877C64.7696 25.163 64.5166 25.482 64.0986 25.834C63.6806 26.164 63.1086 26.45 62.3826 26.692C61.6786 26.956 60.8206 27.088 59.8086 27.088ZM61.4256 23.92C62.2396 23.92 62.9876 23.645 63.6696 23.095C64.3516 22.545 64.6926 21.72 64.6926 20.62V19.102C64.6046 19.256 64.4066 19.421 64.0986 19.597C63.8126 19.751 63.1526 19.905 62.1186 20.059C61.3046 20.169 60.6226 20.378 60.0726 20.686C59.5226 20.994 59.2476 21.5 59.2476 22.204C59.2476 22.82 59.4346 23.26 59.8086 23.524C60.2046 23.788 60.7436 23.92 61.4256 23.92Z" fill="#fff"/>
<path d="M80.6396 10.786C82.0036 10.786 83.2356 11.006 84.3356 11.446C85.4356 11.886 86.3596 12.48 87.1076 13.228C87.8556 13.954 88.3726 14.768 88.6586 15.67L83.7416 17.353C83.8296 16.429 83.5436 15.736 82.8836 15.274C82.2456 14.812 81.4976 14.581 80.6396 14.581C80.0016 14.581 79.5286 14.691 79.2206 14.911C78.9346 15.109 78.7916 15.373 78.7916 15.703C78.7916 16.165 79.0226 16.517 79.4846 16.759C79.9686 16.979 80.5846 17.166 81.3326 17.32C82.0806 17.452 82.8726 17.606 83.7086 17.782C84.5446 17.958 85.3366 18.211 86.0846 18.541C86.8326 18.849 87.4376 19.289 87.8996 19.861C88.3836 20.433 88.6256 21.214 88.6256 22.204C88.6256 23.766 87.9546 24.965 86.6126 25.801C85.2706 26.637 83.4556 27.055 81.1676 27.055C79.0336 27.055 77.2076 26.615 75.6896 25.735C74.1716 24.855 73.0826 23.513 72.4226 21.709L78.1316 20.323C78.1316 21.181 78.3956 21.874 78.9236 22.402C79.4736 22.908 80.2326 23.161 81.2006 23.161C82.5646 23.161 83.2466 22.787 83.2466 22.039C83.2466 21.643 83.0046 21.346 82.5206 21.148C82.0586 20.928 81.4536 20.741 80.7056 20.587C79.9796 20.433 79.1986 20.268 78.3626 20.092C77.5486 19.916 76.7676 19.663 76.0196 19.333C75.2936 19.003 74.6886 18.552 74.2046 17.98C73.7426 17.386 73.5116 16.616 73.5116 15.67C73.5116 14.614 73.8196 13.723 74.4356 12.997C75.0516 12.271 75.8986 11.721 76.9766 11.347C78.0546 10.973 79.2756 10.786 80.6396 10.786Z" fill="#fff"/>
<path d="M90.2648 26.692V4.91199H95.8418V16.528L100.924 11.116H107.095L101.089 17.65L107.029 26.692H100.858L97.4588 21.544L95.8418 23.227V26.692H90.2648Z" fill="#fff"/>
<path d="M109.526 26.692V11.116H115.103V26.692H109.526Z" fill="#fff"/>
<path d="M134.556 22.303C134.05 23.821 133.126 24.998 131.784 25.834C130.464 26.648 128.814 27.055 126.834 27.055C124.26 27.055 122.192 26.362 120.63 24.976C119.068 23.568 118.287 21.5 118.287 18.772C118.287 17.144 118.628 15.736 119.31 14.548C119.992 13.338 120.949 12.414 122.181 11.776C123.413 11.116 124.843 10.786 126.471 10.786C128.957 10.786 130.926 11.402 132.378 12.634C133.83 13.866 134.556 15.538 134.556 17.65C134.556 18.068 134.523 18.497 134.457 18.937C134.413 19.355 134.347 19.806 134.259 20.29H123.666C123.798 21.214 124.128 21.929 124.656 22.435C125.184 22.941 126.009 23.194 127.131 23.194C127.989 23.194 128.649 22.985 129.111 22.567C129.573 22.127 129.848 21.632 129.936 21.082L134.556 22.303ZM126.636 14.68C125.998 14.68 125.415 14.834 124.887 15.142C124.359 15.45 123.985 16.033 123.765 16.891H128.979C129.001 16.847 129.012 16.792 129.012 16.726C129.012 16.638 129.012 16.583 129.012 16.561C129.012 15.923 128.792 15.45 128.352 15.142C127.912 14.834 127.34 14.68 126.636 14.68Z" fill="#fff"/>
<defs>
<linearGradient id="paint0_linear_313_188" x1="32" y1="32" x2="0" y2="0" gradientUnits="userSpaceOnUse">
<stop stop-color="#0C031F"/>
<stop offset="1" stop-color="#143C00"/>
</linearGradient>
<clipPath id="clip0_313_188">
<rect width="32" height="32" rx="7.46667" fill="white"/>
</clipPath>
</defs>
</svg>
